<svg xmlns="http://www.w3.org/2000/svg" viewBox="0 0 275.8 59.8">
  <defs>
    <style>
      .cls-1 {
        fill: #fff;
      }
    </style>
  </defs>
  <g id="Group_28" data-name="Group 28" transform="translate(0 0.1)">
    <g id="Group_8" data-name="Group 8">
      <g id="Group_2" data-name="Group 2">
        <g id="Group_1" data-name="Group 1">
          <path id="Path_1" data-name="Path 1" class="cls-1" d="M82.7.9,96.1,30.4H92l-3.3-7.3h-12l-3.3,7.3h-4Zm0,8.9L78.1,20h9.2Z"/>
          <path id="Path_2" data-name="Path 2" class="cls-1" d="M101.9,2h6.2a11.772,11.772,0,0,1,7.5,2.3,7.247,7.247,0,0,1,2.9,5.9,7.108,7.108,0,0,1-1.9,5c-1.2,1.5-3.2,2.5-5.8,3.1l8.3,12.2h-4.5l-7.9-11.7h-.9V30.5h-3.9V2Zm3.8,3.5v9.9c5.7.1,8.6-1.5,8.6-5a4.359,4.359,0,0,0-1-3,5.3,5.3,0,0,0-2.7-1.6A29.329,29.329,0,0,0,105.7,5.5Z"/>
          <path id="Path_3" data-name="Path 3" class="cls-1" d="M124,2h17.4V5.9h-6.8V30.5h-3.8V5.9H124Z"/>
        </g>
      </g>
      <g id="Group_7" data-name="Group 7">
        <g id="Group_4" data-name="Group 4">
          <g id="Group_3" data-name="Group 3">
            <path id="Path_4" data-name="Path 4" class="cls-1" d="M146.3,6a2.878,2.878,0,0,1,.9-2.1,2.9,2.9,0,0,1,4.2,0,2.9,2.9,0,0,1,0,4.2,2.9,2.9,0,0,1-4.2,0A2.878,2.878,0,0,1,146.3,6Zm1.1,6.1h3.8V30.5h-3.8Z"/>
          </g>
        </g>
        <g id="Group_6" data-name="Group 6">
          <g id="Group_5" data-name="Group 5">
            <path id="Path_5" data-name="Path 5" class="cls-1" d="M158.8,2h15.8V5.9H162.7V13h11.9v3.8H162.7V30.4h-3.9V2Z"/>
            <path id="Path_6" data-name="Path 6" class="cls-1" d="M190.1.9l13.4,29.5h-4.1l-3.3-7.3H184l-3.3,7.3h-4Zm0,8.9L185.5,20h9.2Z"/>
            <path id="Path_7" data-name="Path 7" class="cls-1" d="M229.9,3V7.4a19.761,19.761,0,0,0-8.5-2.3A12.049,12.049,0,0,0,213,8.3a10.3,10.3,0,0,0-3.4,7.9,10.243,10.243,0,0,0,3.5,7.9,12.444,12.444,0,0,0,8.7,3.2,16.279,16.279,0,0,0,8-2.4v4.4a17.445,17.445,0,0,1-8.4,2.1,15.7,15.7,0,0,1-11.3-4.5,14.545,14.545,0,0,1-4.7-10.8A14.021,14.021,0,0,1,210,5.5a15.732,15.732,0,0,1,11.1-4.4A23.651,23.651,0,0,1,229.9,3Z"/>
            <path id="Path_8" data-name="Path 8" class="cls-1" d="M234.3,2h17.4V5.9h-6.8V30.5h-3.8V5.9h-6.8V2Z"/>
            <path id="Path_9" data-name="Path 9" class="cls-1" d="M275.1,5.2l-3.2,2.5a9.19,9.19,0,0,0-2.3-1.9,7.064,7.064,0,0,0-6.3.3A2.712,2.712,0,0,0,262,8.5a3.15,3.15,0,0,0,1.1,2.3A16.22,16.22,0,0,0,267,13a27.9,27.9,0,0,1,4.3,2.2,10.928,10.928,0,0,1,2.5,2.2,9.749,9.749,0,0,1,1.5,2.6,9.291,9.291,0,0,1,.5,2.9,7.942,7.942,0,0,1-2.6,6,8.448,8.448,0,0,1-6.2,2.5,10.514,10.514,0,0,1-6.3-2,12.656,12.656,0,0,1-4.2-5.9l3.9-1.1c1.4,3.2,3.6,4.8,6.5,4.8a4.752,4.752,0,0,0,3.5-1.3,4.158,4.158,0,0,0,1.4-3.2,4.11,4.11,0,0,0-.7-2.3,6.558,6.558,0,0,0-1.8-1.9,16.251,16.251,0,0,0-3.5-1.7c-1.6-.7-2.8-1.3-3.7-1.8a8.167,8.167,0,0,1-2.2-1.9,11.347,11.347,0,0,1-1.4-2.2,6.051,6.051,0,0,1-.4-2.4,6.524,6.524,0,0,1,2.5-5.2,8.853,8.853,0,0,1,6-2.2,11.7,11.7,0,0,1,4.7,1A11.077,11.077,0,0,1,275.1,5.2Z"/>
          </g>
        </g>
      </g>
    </g>
    <g id="Group_27" data-name="Group 27">
      <path id="Path_10" data-name="Path 10" class="cls-1" d="M54.5,35.9a8.386,8.386,0,0,0,8.4-8.4,8.435,8.435,0,0,0-12.6-7.4L46,17.7a4.869,4.869,0,0,0,.1-1.2,5.018,5.018,0,0,0-4.9-5.1,3.4,3.4,0,0,0-1,.1L38.8,9a4.98,4.98,0,0,0,1.9-4,4.9,4.9,0,1,0-9.8,0,5.018,5.018,0,0,0,4.9,5.1h.4l1.6,2.8a4.784,4.784,0,0,0-1.3,2.3H29.3a4.953,4.953,0,0,0-4.9-4.8,5.018,5.018,0,0,0-4.9,5.1,5.018,5.018,0,0,0,4.9,5.1,4.76,4.76,0,0,0,4.2-2.5h8a5.047,5.047,0,0,0,4.7,3.5,4.762,4.762,0,0,0,3.4-1.4l3.4,2a8.179,8.179,0,0,0-1.9,5.3,8.082,8.082,0,0,0,.5,2.7H39a8.391,8.391,0,0,0-8.3-7,8.548,8.548,0,0,0-8,5.7l-6.2-3.4a9.862,9.862,0,0,0,.3-2.4,8.451,8.451,0,0,0-8.4-8.4A8.365,8.365,0,0,0,0,23a8.385,8.385,0,0,0,15.2,4.9l7,3.9a8.049,8.049,0,0,0,1.3,4.3L16,39.6a5.039,5.039,0,0,0-3.8-1.9,5.1,5.1,0,0,0,0,10.2c.4,0,.8-.1,1.1-.1l9,5.7a4.1,4.1,0,0,0-.1,1.1,5.1,5.1,0,0,0,10.2,0,5.22,5.22,0,0,0-2.7-4.5l-.1-10.2c.3,0,.7.1,1,.1a8.391,8.391,0,0,0,8.3-7h9.2a8.26,8.26,0,0,0,2.8,2.1l-2.8,6.1a12.31,12.31,0,0,0-2-.2,8.248,8.248,0,1,0,4.6,1.3l2.9-6.5A3.444,3.444,0,0,0,54.5,35.9ZM26.9,49.5a4.954,4.954,0,0,0-3.1,1.4L16,46.1a5.167,5.167,0,0,0,1.1-3.2v-.6l8.5-4a6.726,6.726,0,0,0,1.1.7Z"/>
      <g id="Group_26" data-name="Group 26">
        <g id="Group_10" data-name="Group 10">
          <g id="Group_9" data-name="Group 9">
            <path id="Path_11" data-name="Path 11" class="cls-1" d="M70.3,35.9h1.3a3.8,3.8,0,0,1,2.2.6,1.659,1.659,0,0,1,.8,1.5,2.138,2.138,0,0,1-1.2,1.8A2.288,2.288,0,0,1,75.3,42a2.12,2.12,0,0,1-1,1.8,5.1,5.1,0,0,1-2.7.7H70.2V35.9Zm1.1,1v2.5a2.41,2.41,0,0,0,1.5-.4,1.231,1.231,0,0,0,.5-1c0-.4-.2-.6-.5-.9a2.133,2.133,0,0,0-1.2-.3A.367.367,0,0,1,71.4,36.9Zm0,3.5v2.9h.1a3.02,3.02,0,0,0,2-.5,1.107,1.107,0,0,0,.5-1,1.382,1.382,0,0,0-.6-1.1,2.861,2.861,0,0,0-1.7-.4h-.3Z"/>
            <path id="Path_12" data-name="Path 12" class="cls-1" d="M79.3,35.9h1.2v5.2a2.445,2.445,0,0,0,.6,1.8,2.2,2.2,0,0,0,3.8-1.6V35.9h1.2v5.3a3.486,3.486,0,0,1-.9,2.5,3.65,3.65,0,0,1-4.8,0,3.927,3.927,0,0,1-.9-2.8v-5Z"/>
            <path id="Path_13" data-name="Path 13" class="cls-1" d="M90.1,35.9h1.1v8.5H90.1Z"/>
            <path id="Path_14" data-name="Path 14" class="cls-1" d="M95.7,35.9h1.1v7.3h2.8v1.1H95.7Z"/>
            <path id="Path_15" data-name="Path 15" class="cls-1" d="M103.2,35.9h2.1a4.546,4.546,0,0,1,3.6,1.3,4.234,4.234,0,0,1,1.2,3,4.41,4.41,0,0,1-1.2,3,4.546,4.546,0,0,1-3.6,1.3h-2.1Zm1.1,1.1v6.2h.1a9.229,9.229,0,0,0,1.9-.1,3.08,3.08,0,0,0,1.2-.5,2.836,2.836,0,0,0,.9-1,3.194,3.194,0,0,0,.3-1.4,3,3,0,0,0-.6-1.8,3.339,3.339,0,0,0-1.3-1.1,5.842,5.842,0,0,0-2.1-.3h-.4Z"/>
            <path id="Path_16" data-name="Path 16" class="cls-1" d="M113.9,35.9H115v8.5h-1.1Z"/>
            <path id="Path_17" data-name="Path 17" class="cls-1" d="M119.3,35.5l6.3,6.5V35.9h1.2v8.9l-6.3-6.4v6h-1.2Z"/>
            <path id="Path_18" data-name="Path 18" class="cls-1" d="M139.3,37.2l-.9.8a4.529,4.529,0,0,0-3-1.3,3.317,3.317,0,0,0-2.5,1,2.965,2.965,0,0,0-1,2.4,3.194,3.194,0,0,0,1,2.3,3.337,3.337,0,0,0,2.7,1,2.915,2.915,0,0,0,3.2-2.2h-2.3V40h3.6a5.721,5.721,0,0,1-.1,1.4,4.348,4.348,0,0,1-1.5,2.2,3.293,3.293,0,0,1-1.3.7,7.931,7.931,0,0,1-1.7.2,4.665,4.665,0,0,1-3.5-1.4,4.588,4.588,0,0,1,0-6.4,4.446,4.446,0,0,1,3.3-1.3,7.107,7.107,0,0,1,2.1.3C138,36.2,138.7,36.6,139.3,37.2Z"/>
          </g>
        </g>
        <g id="Group_25" data-name="Group 25">
          <g id="Group_12" data-name="Group 12">
            <g id="Group_11" data-name="Group 11">
              <path id="Path_19" data-name="Path 19" class="cls-1" d="M152.6,35.9h5.2V37h-2v7.3h-1.1V37h-2V35.9Z"/>
              <path id="Path_20" data-name="Path 20" class="cls-1" d="M161.4,35.9h1.2v3.3h4.1V35.9h1.1v8.5h-1.1V40.3h-4.1v4.1h-1.2Z"/>
              <path id="Path_21" data-name="Path 21" class="cls-1" d="M172,35.9h4.7V37h-3.6v2.1h3.6v1.1h-3.6v2.9h3.6v1.1H172Z"/>
            </g>
          </g>
          <g id="Group_24" data-name="Group 24">
            <g id="Group_14" data-name="Group 14">
              <g id="Group_13" data-name="Group 13">
                <path id="Path_22" data-name="Path 22" class="cls-1" d="M189.5,35.9h1.1v7.3h2.8v1.1h-3.9V35.9Z"/>
                <path id="Path_23" data-name="Path 23" class="cls-1" d="M197.2,35.9h4.7V37h-3.6v2.1h3.6v1.1h-3.6v2.9h3.6v1.1h-4.7Z"/>
                <path id="Path_24" data-name="Path 24" class="cls-1" d="M205.8,35.9h2.1a4.546,4.546,0,0,1,3.6,1.3,4.234,4.234,0,0,1,1.2,3,4.41,4.41,0,0,1-1.2,3,4.546,4.546,0,0,1-3.6,1.3h-2.1ZM207,37v6.2h.1a9.229,9.229,0,0,0,1.9-.1,3.08,3.08,0,0,0,1.2-.5,2.836,2.836,0,0,0,.9-1,3.194,3.194,0,0,0,.3-1.4,3,3,0,0,0-.6-1.8,3.339,3.339,0,0,0-1.3-1.1,5.842,5.842,0,0,0-2.1-.3H207Z"/>
                <path id="Path_25" data-name="Path 25" class="cls-1" d="M224.8,37.2l-.9.8a4.529,4.529,0,0,0-3-1.3,3.317,3.317,0,0,0-2.5,1,2.965,2.965,0,0,0-1,2.4,3.194,3.194,0,0,0,1,2.3,3.337,3.337,0,0,0,2.7,1,2.915,2.915,0,0,0,3.2-2.2H222V40h3.6a5.721,5.721,0,0,1-.1,1.4,4.348,4.348,0,0,1-1.5,2.2,3.293,3.293,0,0,1-1.3.7,7.931,7.931,0,0,1-1.7.2,4.665,4.665,0,0,1-3.5-1.4,4.588,4.588,0,0,1,0-6.4,4.446,4.446,0,0,1,3.3-1.3,7.107,7.107,0,0,1,2.1.3C223.5,36.2,224.2,36.6,224.8,37.2Z"/>
                <path id="Path_26" data-name="Path 26" class="cls-1" d="M229.2,35.9h4.7V37h-3.6v2.1h3.6v1.1h-3.6v2.9h3.6v1.1h-4.7Z"/>
                <path id="Path_27" data-name="Path 27" class="cls-1" d="M238.1,35.9h1.8a3.069,3.069,0,0,1,2.2.7,2.091,2.091,0,0,1,.9,1.7,2.035,2.035,0,0,1-.6,1.5,3.932,3.932,0,0,1-1.7.9l2.5,3.6h-1.3l-2.4-3.5h-.3v3.5H238V35.9Zm1.1,1v3c1.7,0,2.6-.5,2.6-1.5a1.222,1.222,0,0,0-.3-.9,2.177,2.177,0,0,0-.8-.5A5.758,5.758,0,0,0,239.2,36.9Z"/>
              </g>
            </g>
            <g id="Group_23" data-name="Group 23">
              <g id="Group_16" data-name="Group 16">
                <g id="Group_15" data-name="Group 15">
                  <path id="Path_28" data-name="Path 28" class="cls-1" d="M256,40.1a4.744,4.744,0,0,1,8-3.2,4.262,4.262,0,0,1,1.4,3.1,4.534,4.534,0,0,1-1.4,3.3,4.7,4.7,0,0,1-8-3.2Zm8.2,0a3.25,3.25,0,0,0-1-2.4,3.74,3.74,0,0,0-2.5-1,3.25,3.25,0,0,0-2.4,1,3.1,3.1,0,0,0-1,2.4,3.25,3.25,0,0,0,1,2.4,3.317,3.317,0,0,0,2.5,1,3.25,3.25,0,0,0,2.4-1A3.69,3.69,0,0,0,264.2,40.1Z"/>
                  <path id="Path_29" data-name="Path 29" class="cls-1" d="M269,35.9h4.7V37h-3.6v2.1h3.6v1.1h-3.6v4.1H269Z"/>
                </g>
              </g>
              <g id="Group_22" data-name="Group 22">
                <g id="Group_18" data-name="Group 18">
                  <g id="Group_17" data-name="Group 17">
                    <path id="Path_30" data-name="Path 30" class="cls-1" d="M70.3,49.5h1.8a3.069,3.069,0,0,1,2.2.7,2.091,2.091,0,0,1,.9,1.7,2.035,2.035,0,0,1-.6,1.5,3.932,3.932,0,0,1-1.7.9l2.5,3.6H74.1l-2.4-3.5h-.3V58H70.2V49.5Zm1.1,1.1v3c1.7,0,2.6-.5,2.6-1.5a1.222,1.222,0,0,0-.3-.9,2.177,2.177,0,0,0-.8-.5A5.758,5.758,0,0,0,71.4,50.6Z"/>
                    <path id="Path_31" data-name="Path 31" class="cls-1" d="M79.5,49.5h4.7v1.2H80.6v2.1h3.6V54H80.6v2.9h3.6V58H79.5Z"/>
                    <path id="Path_32" data-name="Path 32" class="cls-1" d="M95.1,49.8v1.3a6.794,6.794,0,0,0-2.5-.7,3.317,3.317,0,0,0-2.5,1,2.9,2.9,0,0,0-1,2.3,3.25,3.25,0,0,0,1,2.4,3.916,3.916,0,0,0,2.6.9,4.423,4.423,0,0,0,2.4-.7v1.3a5.421,5.421,0,0,1-2.5.6,4.837,4.837,0,0,1-3.4-1.3,4.5,4.5,0,0,1,3.3-7.7A8.828,8.828,0,0,1,95.1,49.8Z"/>
                    <path id="Path_33" data-name="Path 33" class="cls-1" d="M98.6,53.7a4.744,4.744,0,0,1,8-3.2,4.262,4.262,0,0,1,1.4,3.1,4.534,4.534,0,0,1-1.4,3.3,4.838,4.838,0,0,1-6.6,0A4.158,4.158,0,0,1,98.6,53.7Zm8.2.1a3.25,3.25,0,0,0-1-2.4,3.74,3.74,0,0,0-2.5-1,3.25,3.25,0,0,0-2.4,1,3.1,3.1,0,0,0-1,2.4,3.25,3.25,0,0,0,1,2.4,3.74,3.74,0,0,0,2.5,1,3.414,3.414,0,0,0,3.4-3.4Z"/>
                    <path id="Path_34" data-name="Path 34" class="cls-1" d="M112.2,49.5H114a3.069,3.069,0,0,1,2.2.7,2.091,2.091,0,0,1,.9,1.7,2.035,2.035,0,0,1-.6,1.5,3.932,3.932,0,0,1-1.7.9l2.5,3.6H116l-2.4-3.5h-.3V58h-1.2V49.5Zm1.2,1.1v3c1.7,0,2.6-.5,2.6-1.5a1.222,1.222,0,0,0-.3-.9,2.177,2.177,0,0,0-.8-.5A6.622,6.622,0,0,0,113.4,50.6Z"/>
                    <path id="Path_35" data-name="Path 35" class="cls-1" d="M121.6,49.5h2.1a4.546,4.546,0,0,1,3.6,1.3,4.234,4.234,0,0,1,1.2,3,4.41,4.41,0,0,1-1.2,3,4.546,4.546,0,0,1-3.6,1.3h-2.1V49.5Zm1.1,1.2v6.2h.1a9.229,9.229,0,0,0,1.9-.1,3.08,3.08,0,0,0,1.2-.5,2.836,2.836,0,0,0,.9-1,3.194,3.194,0,0,0,.3-1.4,3,3,0,0,0-.6-1.8,3.339,3.339,0,0,0-1.3-1.1,5.842,5.842,0,0,0-2.1-.3h-.4Z"/>
                  </g>
                </g>
                <g id="Group_21" data-name="Group 21">
                  <g id="Group_20" data-name="Group 20">
                    <g id="Group_19" data-name="Group 19">
                      <path id="Path_36" data-name="Path 36" class="cls-1" d="M137.7,49.5h4.7v1.2h-3.6v2.1h3.6V54h-3.6v4h-1.2V49.5Z"/>
                      <path id="Path_37" data-name="Path 37" class="cls-1" d="M146,53.7a4.744,4.744,0,0,1,8-3.2,4.262,4.262,0,0,1,1.4,3.1,4.534,4.534,0,0,1-1.4,3.3,4.838,4.838,0,0,1-6.6,0A4.158,4.158,0,0,1,146,53.7Zm8.2.1a3.25,3.25,0,0,0-1-2.4,3.74,3.74,0,0,0-2.5-1,3.25,3.25,0,0,0-2.4,1,3.1,3.1,0,0,0-1,2.4,3.25,3.25,0,0,0,1,2.4,3.74,3.74,0,0,0,2.5,1,3.25,3.25,0,0,0,2.4-1A3.69,3.69,0,0,0,154.2,53.8Z"/>
                      <path id="Path_38" data-name="Path 38" class="cls-1" d="M159.6,49.5h1.8a3.069,3.069,0,0,1,2.2.7,2.091,2.091,0,0,1,.9,1.7,2.035,2.035,0,0,1-.6,1.5,3.932,3.932,0,0,1-1.7.9l2.5,3.6h-1.3L161,54.4h-.3V58h-1.2V49.5Zm1.2,1.1v3c1.7,0,2.6-.5,2.6-1.5a1.222,1.222,0,0,0-.3-.9,2.177,2.177,0,0,0-.8-.5A6.622,6.622,0,0,0,160.8,50.6Z"/>
                      <path id="Path_39" data-name="Path 39" class="cls-1" d="M174.4,49.5h1.8a3.069,3.069,0,0,1,2.2.7,2.091,2.091,0,0,1,.9,1.7,2.035,2.035,0,0,1-.6,1.5,3.932,3.932,0,0,1-1.7.9l2.5,3.6h-1.3l-2.4-3.5h-.3V58h-1.2V49.5Zm1.2,1.1v3c1.7,0,2.6-.5,2.6-1.5a1.222,1.222,0,0,0-.3-.9,2.177,2.177,0,0,0-.8-.5A6.622,6.622,0,0,0,175.6,50.6Z"/>
                      <path id="Path_40" data-name="Path 40" class="cls-1" d="M183.5,49.5h4.7v1.2h-3.6v2.1h3.6V54h-3.6v2.9h3.6V58h-4.7Z"/>
                      <path id="Path_41" data-name="Path 41" class="cls-1" d="M197.2,50.5l-.9.8c-.2-.3-.5-.4-.7-.6a2,2,0,0,0-.9-.2,1.493,1.493,0,0,0-1,.3.755.755,0,0,0-.4.7.908.908,0,0,0,.3.7,3.256,3.256,0,0,0,1.2.6,7.621,7.621,0,0,1,1.3.7,1.575,1.575,0,0,1,.7.7,2.01,2.01,0,0,1,.4.8,2.768,2.768,0,0,1,.1.9,2.566,2.566,0,0,1-2.7,2.5,3.292,3.292,0,0,1-1.9-.6,4.532,4.532,0,0,1-1.3-1.7l1.2-.3a1.966,1.966,0,0,0,1.9,1.4,1.5,1.5,0,0,0,1.1-.4,1.284,1.284,0,0,0,.4-1,1.854,1.854,0,0,0-.2-.7,2.651,2.651,0,0,0-.5-.6,4.609,4.609,0,0,0-1-.5c-.5-.2-.8-.4-1.1-.5s-.5-.4-.7-.6a1.612,1.612,0,0,1-.4-.7,1.7,1.7,0,0,1-.1-.7,2.13,2.13,0,0,1,.7-1.6,2.792,2.792,0,0,1,1.8-.6,3.529,3.529,0,0,1,1.4.3A2.539,2.539,0,0,1,197.2,50.5Z"/>
                      <path id="Path_42" data-name="Path 42" class="cls-1" d="M201.3,49.5H206v1.2h-3.6v2.1H206V54h-3.6v2.9H206V58h-4.7Z"/>
                      <path id="Path_43" data-name="Path 43" class="cls-1" d="M213,49.2l4,8.8h-1.2l-1-2.2h-3.6l-1,2.2H209Zm0,2.7-1.4,3h2.7Z"/>
                      <path id="Path_44" data-name="Path 44" class="cls-1" d="M220.8,49.5h1.8a3.069,3.069,0,0,1,2.2.7,2.091,2.091,0,0,1,.9,1.7,2.035,2.035,0,0,1-.6,1.5,3.932,3.932,0,0,1-1.7.9l2.5,3.6h-1.3l-2.4-3.5H222V58h-1.2Zm1.2,1.1v3c1.7,0,2.6-.5,2.6-1.5a1.222,1.222,0,0,0-.3-.9,2.177,2.177,0,0,0-.8-.5A6.622,6.622,0,0,0,222,50.6Z"/>
                      <path id="Path_45" data-name="Path 45" class="cls-1" d="M236.8,49.8v1.3a6.794,6.794,0,0,0-2.5-.7,3.317,3.317,0,0,0-2.5,1,2.9,2.9,0,0,0-1,2.3,3.25,3.25,0,0,0,1,2.4,3.916,3.916,0,0,0,2.6.9,4.423,4.423,0,0,0,2.4-.7v1.3a5.421,5.421,0,0,1-2.5.6,4.837,4.837,0,0,1-3.4-1.3,4.5,4.5,0,0,1,3.3-7.7A8.171,8.171,0,0,1,236.8,49.8Z"/>
                      <path id="Path_46" data-name="Path 46" class="cls-1" d="M240.8,49.5H242v3.3h4.1V49.5h1.1V58H246V53.9h-4.1V58h-1.2V49.5Z"/>
                    </g>
                  </g>
                </g>
              </g>
            </g>
          </g>
        </g>
      </g>
    </g>
  </g>
</svg>
