<svg xmlns="http://www.w3.org/2000/svg" viewBox="0 0 183.222 182.9">
    <defs>
        <style>
            .cls-1{fill:url(#linear-gradient)}
        </style>
        <linearGradient id="linear-gradient" x2="1.002" y1=".502" y2=".502" gradientUnits="objectBoundingBox">
            <stop offset="0" stop-color="#00f2fe"/>
            <stop offset=".021" stop-color="#03effe"/>
            <stop offset=".293" stop-color="#24d2fe"/>
            <stop offset=".554" stop-color="#3cbdfe"/>
            <stop offset=".796" stop-color="#4ab0fe"/>
            <stop offset="1" stop-color="#4facfe"/>
        </linearGradient>
    </defs>
    <path id="Path_152" d="M159.282 57.865h-8.589V38.219A38.2 38.2 0 0 0 112.51 0H73.933a38.258 38.258 0 0 0-38.219 38.219 7.157 7.157 0 1 0 14.314 0 23.962 23.962 0 0 1 23.941-23.941h38.577a23.962 23.962 0 0 1 23.941 23.941v19.646H99.663a7.157 7.157 0 1 0 0 14.314h36.787v82.164a14.3 14.3 0 0 1-14.278 14.278h-36A28.492 28.492 0 0 0 90 154.343v-2.863h4.652a23.941 23.941 0 1 0 0-47.881H7.157A7.155 7.155 0 0 0 0 110.756v43.587A28.59 28.59 0 0 0 28.557 182.9h93.579a28.59 28.59 0 0 0 28.557-28.557V134.7h8.589a23.962 23.962 0 0 0 23.941-23.941V81.842a23.97 23.97 0 0 0-23.941-23.977zm-55 69.639a9.629 9.629 0 0 1-9.626 9.626H90v-19.288h4.652a9.683 9.683 0 0 1 9.627 9.658zm-75.725 41.082a14.3 14.3 0 0 1-14.278-14.278v-36.43h61.443v36.43a14.3 14.3 0 0 1-14.278 14.278zm140.387-57.865a9.629 9.629 0 0 1-9.626 9.626h-8.589v-48.2h8.589a9.629 9.629 0 0 1 9.626 9.626zM21.436 89.285c0-7.229 4.688-11.773 8.445-15.459 3.757-3.65 5.869-5.869 5.869-9.555a7.157 7.157 0 1 1 14.314 0c0 9.877-5.9 15.638-10.2 19.789-2.04 1.968-4.115 4.008-4.115 5.189a7.157 7.157 0 0 1-14.314.036zm38.934 7.157a7.155 7.155 0 0 1-7.157-7.157c0-7.157 4.545-11.7 8.195-15.388 3.65-3.65 5.726-5.9 5.726-9.626a7.157 7.157 0 0 1 14.314 0c0 9.841-5.726 15.567-9.913 19.718-2.076 2.076-4.008 4.008-4.008 5.26a7.209 7.209 0 0 1-7.157 7.193z" class="cls-1" data-name="Path 152"/>
</svg>
