<?xml version="1.0" encoding="iso-8859-1"?>
<!-- Generator: Adobe Illustrator 22.1.0, SVG Export Plug-In . SVG Version: 6.00 Build 0)  -->
<svg version="1.1" id="Layer_2" xmlns="http://www.w3.org/2000/svg" xmlns:xlink="http://www.w3.org/1999/xlink" x="0px" y="0px"
	 viewBox="0 0 207.296 187.61" style="enable-background:new 0 0 207.296 187.61;" xml:space="preserve">
<path style="fill:#FFFFFF;" d="M128.805,46.299c5.942,0,10.758-4.81,10.758-10.742s-4.817-10.742-10.758-10.742
	c-1.968,0-3.807,0.537-5.393,1.458l-5.548-3.169c0.116-0.492,0.184-1.003,0.184-1.531c0-3.582-2.817-6.486-6.292-6.486
	c-0.437,0-0.863,0.046-1.275,0.134l-1.752-3.137c1.47-1.187,2.418-3.029,2.418-5.104c0-3.582-2.817-6.486-6.293-6.486
	c-3.475,0-6.293,2.904-6.293,6.486s2.817,6.486,6.293,6.486c0.154,0,0.304-0.013,0.455-0.023l1.987,3.557
	c-0.784,0.812-1.354,1.84-1.635,2.987l-9.145,0.051c-0.163-3.432-2.906-6.166-6.277-6.166c-3.475,0-6.293,2.904-6.293,6.486
	s2.817,6.486,6.293,6.486c2.291,0,4.29-1.266,5.391-3.153l10.163-0.057c0.836,2.571,3.187,4.425,5.963,4.425
	c1.674,0,3.191-0.678,4.318-1.777l4.385,2.504c-1.505,1.848-2.41,4.204-2.41,6.771c0,1.207,0.208,2.363,0.576,3.446h-9.674
	c-0.869-5.062-5.274-8.919-10.592-8.919c-4.707,0-8.698,3.024-10.158,7.229l-7.946-4.393c0.284-0.964,0.443-1.982,0.443-3.038
	c0-5.933-4.817-10.743-10.758-10.743s-10.758,4.81-10.758,10.743c0,5.933,4.817,10.742,10.758,10.742
	c3.577,0,6.737-1.75,8.693-4.432l8.984,4.967c0.061,1.995,0.665,3.852,1.673,5.43l-9.61,4.519c-1.154-1.451-2.906-2.377-4.868-2.377
	c-3.475,0-6.293,2.904-6.293,6.486c0,3.582,2.817,6.486,6.293,6.486c0.501,0,0.985-0.067,1.452-0.18l11.501,7.258
	c-0.105,0.462-0.165,0.942-0.165,1.435c0,3.582,2.908,6.486,6.496,6.486c3.587,0,6.496-2.904,6.496-6.486
	c0-2.465-1.377-4.608-3.405-5.705l-0.163-13.033c0.439,0.054,0.882,0.091,1.336,0.091c5.317,0,9.722-3.856,10.592-8.918h11.793
	c0.972,1.101,2.165,1.999,3.512,2.629l-3.512,7.806c-0.801-0.19-1.632-0.301-2.492-0.301c-5.942,0-10.758,4.81-10.758,10.742
	s4.817,10.742,10.758,10.742c5.942,0,10.758-4.81,10.758-10.742c0-3.778-1.957-7.094-4.91-9.009l3.72-8.269
	C128.144,46.28,128.472,46.299,128.805,46.299z M93.527,63.759c-1.546,0.134-2.936,0.806-3.981,1.831l-9.886-6.239
	c0.902-1.123,1.444-2.563,1.444-4.134c0-0.246-0.016-0.489-0.042-0.728l10.83-5.092c0.463,0.349,0.951,0.666,1.467,0.937
	L93.527,63.759z"/>
<g>
	<g>
		<g>
			<g>
				<path style="fill:#FFFFFF;" d="M13.496,112.2l13.445,29.529h-4.076l-3.305-7.276H7.476l-3.268,7.276H0.162L13.496,112.2z
					 M13.485,121.074L8.93,131.216h9.16L13.485,121.074z"/>
				<path style="fill:#FFFFFF;" d="M32.677,113.294h6.169c3.07,0,5.569,0.763,7.499,2.287c1.93,1.525,2.895,3.477,2.895,5.857
					c0,1.904-0.624,3.585-1.873,5.043c-1.249,1.458-3.196,2.484-5.841,3.079l8.273,12.169h-4.462l-7.899-11.696h-0.872v11.696
					h-3.889V113.294z M36.566,116.731v9.91c5.737,0.119,8.606-1.54,8.606-4.977c0-1.205-0.335-2.191-1.006-2.957
					c-0.671-0.766-1.565-1.287-2.682-1.562C40.366,116.869,38.727,116.731,36.566,116.731z"/>
				<path style="fill:#FFFFFF;" d="M54.776,113.294h17.413v3.884h-6.795v24.552h-3.845v-24.552h-6.773V113.294z"/>
			</g>
		</g>
		<g>
			<g>
				<g>
					<path style="fill:#FFFFFF;" d="M77.124,117.267c0-0.804,0.298-1.499,0.894-2.087c0.596-0.588,1.304-0.881,2.123-0.881
						c0.805,0,1.501,0.294,2.09,0.881c0.588,0.588,0.883,1.283,0.883,2.087c0,0.818-0.294,1.518-0.883,2.098
						c-0.589,0.58-1.285,0.87-2.09,0.87c-0.82,0-1.528-0.29-2.123-0.87C77.422,118.784,77.124,118.085,77.124,117.267z
						 M78.22,123.315h3.845v18.414H78.22V123.315z"/>
				</g>
			</g>
			<g>
				<g>
					<path style="fill:#FFFFFF;" d="M89.673,113.294h15.781v3.884H93.518v7.098h11.936v3.839H93.562v13.615h-3.889V113.294z"/>
					<path style="fill:#FFFFFF;" d="M120.94,112.2l13.445,29.529h-4.076l-3.305-7.276H114.92l-3.268,7.276h-4.046L120.94,112.2z
						 M120.929,121.074l-4.555,10.142h9.16L120.929,121.074z"/>
					<path style="fill:#FFFFFF;" d="M160.71,114.276v4.397c-3.07-1.503-5.894-2.254-8.472-2.254c-3.308,0-6.095,1.067-8.36,3.2
						c-2.265,2.133-3.398,4.753-3.398,7.86c0,3.166,1.158,5.808,3.476,7.927c2.317,2.118,5.219,3.177,8.706,3.177
						c2.533,0,5.216-0.796,8.047-2.388v4.441c-2.578,1.369-5.372,2.053-8.382,2.053c-4.411,0-8.181-1.49-11.31-4.472
						c-3.129-2.981-4.694-6.576-4.694-10.784c0-4.133,1.538-7.672,4.616-10.616c3.077-2.944,6.784-4.416,11.12-4.416
						C154.845,112.401,157.729,113.026,160.71,114.276z"/>
					<path style="fill:#FFFFFF;" d="M165.149,113.294h17.413v3.884h-6.795v24.552h-3.845v-24.552h-6.773V113.294z"/>
					<path style="fill:#FFFFFF;" d="M205.89,116.463l-3.152,2.522c-0.833-0.863-1.587-1.507-2.264-1.931
						c-0.677-0.424-1.654-0.636-2.932-0.636c-1.398,0-2.532,0.315-3.401,0.946c-0.87,0.631-1.305,1.443-1.305,2.437
						c0,0.861,0.38,1.621,1.139,2.281c0.759,0.66,2.054,1.383,3.883,2.168c1.829,0.785,3.254,1.515,4.273,2.192
						c1.019,0.677,1.856,1.424,2.51,2.242c0.655,0.818,1.141,1.68,1.461,2.587c0.32,0.907,0.48,1.866,0.48,2.877
						c0,2.364-0.861,4.379-2.582,6.044c-1.721,1.665-3.804,2.498-6.248,2.498c-2.384,0-4.489-0.651-6.315-1.953
						c-1.826-1.302-3.23-3.255-4.213-5.859l3.889-1.094c1.416,3.199,3.584,4.799,6.505,4.799c1.416,0,2.593-0.423,3.532-1.268
						c0.939-0.845,1.408-1.913,1.408-3.204c0-0.771-0.246-1.546-0.738-2.325c-0.492-0.779-1.104-1.421-1.835-1.925
						c-0.731-0.504-1.894-1.083-3.488-1.736c-1.595-0.653-2.822-1.251-3.682-1.794c-0.86-0.543-1.604-1.19-2.232-1.94
						c-0.628-0.751-1.088-1.498-1.38-2.242s-0.437-1.539-0.437-2.386c0-2.037,0.819-3.773,2.459-5.208
						c1.639-1.435,3.628-2.153,5.968-2.153c1.55,0,3.122,0.335,4.716,1.004C203.506,114.075,204.832,115.094,205.89,116.463z"/>
				</g>
			</g>
		</g>
	</g>
	<g>
		<g>
			<g>
				<path style="fill:#FFFFFF;" d="M5.089,162.13h1.348c0.885,0,1.609,0.192,2.169,0.576c0.561,0.384,0.841,0.869,0.841,1.455
					c0,0.715-0.414,1.312-1.241,1.791c1.282,0.427,1.922,1.167,1.922,2.221c0,0.734-0.33,1.325-0.991,1.774
					c-0.661,0.449-1.545,0.674-2.653,0.674H5.089V162.13z M6.237,163.156v2.513c0.641-0.009,1.131-0.131,1.472-0.367
					c0.34-0.235,0.511-0.56,0.511-0.973c0-0.36-0.154-0.648-0.46-0.863c-0.307-0.216-0.719-0.323-1.235-0.323
					C6.413,163.143,6.317,163.147,6.237,163.156z M6.237,166.675v2.906h0.093c1.001,0,1.684-0.16,2.049-0.48
					c0.365-0.32,0.547-0.646,0.547-0.98c0-0.44-0.205-0.791-0.614-1.053c-0.409-0.262-0.97-0.393-1.682-0.393H6.237z"/>
				<path style="fill:#FFFFFF;" d="M14.096,162.143h1.161v5.219c0,0.773,0.186,1.371,0.557,1.793
					c0.371,0.422,0.898,0.633,1.579,0.633c0.676,0,1.202-0.194,1.579-0.583c0.376-0.389,0.564-0.936,0.564-1.643v-5.419h1.161v5.339
					c0,1.04-0.297,1.871-0.891,2.493c-0.594,0.622-1.385,0.933-2.373,0.933c-1.01,0-1.819-0.315-2.426-0.946
					c-0.607-0.631-0.911-1.562-0.911-2.793V162.143z"/>
				<path style="fill:#FFFFFF;" d="M24.915,162.13h1.148v8.491h-1.148V162.13z"/>
				<path style="fill:#FFFFFF;" d="M30.505,162.13h1.148v7.345h2.77v1.146h-3.918V162.13z"/>
				<path style="fill:#FFFFFF;" d="M37.976,162.13h2.062c1.633,0,2.848,0.431,3.644,1.293c0.796,0.862,1.195,1.846,1.195,2.953
					c0,1.115-0.412,2.102-1.235,2.959c-0.823,0.858-2.02,1.286-3.591,1.286h-2.076V162.13z M39.137,163.263v6.212h0.067
					c0.863,0,1.513-0.039,1.949-0.117c0.436-0.078,0.85-0.248,1.242-0.51c0.391-0.262,0.703-0.61,0.934-1.043
					c0.231-0.433,0.347-0.91,0.347-1.43c0-0.653-0.185-1.244-0.554-1.773c-0.369-0.529-0.811-0.884-1.325-1.066
					c-0.514-0.182-1.205-0.273-2.073-0.273H39.137z"/>
				<path style="fill:#FFFFFF;" d="M48.742,162.13h1.148v8.491h-1.148V162.13z"/>
				<path style="fill:#FFFFFF;" d="M54.098,161.789l6.288,6.453v-6.113h1.161v8.884l-6.288-6.425v6.032h-1.161V161.789z"/>
				<path style="fill:#FFFFFF;" d="M74.137,163.489l-0.861,0.846c-0.868-0.848-1.871-1.273-3.01-1.273
					c-0.997,0-1.827,0.32-2.49,0.959c-0.663,0.639-0.994,1.438-0.994,2.397c0,0.839,0.321,1.595,0.964,2.267
					c0.643,0.672,1.53,1.009,2.66,1.009c1.695,0,2.761-0.735,3.197-2.206h-2.296v-1.16h3.624c0,0.581-0.039,1.045-0.117,1.391
					c-0.078,0.346-0.239,0.728-0.484,1.145c-0.245,0.417-0.571,0.791-0.978,1.122c-0.407,0.33-0.843,0.567-1.308,0.709
					c-0.465,0.142-1.02,0.213-1.665,0.213c-1.468,0-2.64-0.461-3.514-1.382c-0.874-0.921-1.312-1.975-1.312-3.16
					c0-1.248,0.447-2.31,1.342-3.187c0.894-0.877,1.978-1.315,3.251-1.315c0.756,0,1.447,0.115,2.073,0.343
					C72.843,162.435,73.483,162.863,74.137,163.489z"/>
			</g>
		</g>
		<g>
			<g>
				<g>
					<path style="fill:#FFFFFF;" d="M84.377,162.13h5.2v1.16h-2.029v7.331h-1.148v-7.331h-2.022V162.13z"/>
					<path style="fill:#FFFFFF;" d="M93.194,162.13h1.161v3.266h4.065v-3.266h1.148v8.491H98.42v-4.079h-4.065v4.079h-1.161V162.13z
						"/>
					<path style="fill:#FFFFFF;" d="M103.86,162.13h4.712v1.16h-3.564v2.119h3.564v1.146h-3.564v2.919h3.564v1.146h-4.712V162.13z"
						/>
				</g>
			</g>
			<g>
				<g>
					<g>
						<path style="fill:#FFFFFF;" d="M119.308,162.13h1.148v7.345h2.77v1.146h-3.918V162.13z"/>
						<path style="fill:#FFFFFF;" d="M126.987,162.13h4.712v1.16h-3.564v2.119h3.564v1.146h-3.564v2.919h3.564v1.146h-4.712V162.13z
							"/>
						<path style="fill:#FFFFFF;" d="M135.664,162.13h2.062c1.633,0,2.848,0.431,3.644,1.293c0.797,0.862,1.195,1.846,1.195,2.953
							c0,1.115-0.412,2.102-1.235,2.959c-0.823,0.858-2.02,1.286-3.591,1.286h-2.076V162.13z M136.825,163.263v6.212h0.067
							c0.863,0,1.513-0.039,1.949-0.117c0.436-0.078,0.85-0.248,1.242-0.51c0.391-0.262,0.703-0.61,0.934-1.043
							c0.231-0.433,0.347-0.91,0.347-1.43c0-0.653-0.185-1.244-0.554-1.773c-0.369-0.529-0.811-0.884-1.325-1.066
							c-0.514-0.182-1.205-0.273-2.073-0.273H136.825z"/>
						<path style="fill:#FFFFFF;" d="M154.667,163.489l-0.861,0.846c-0.868-0.848-1.871-1.273-3.01-1.273
							c-0.997,0-1.827,0.32-2.49,0.959c-0.663,0.639-0.994,1.438-0.994,2.397c0,0.839,0.321,1.595,0.964,2.267
							c0.643,0.672,1.53,1.009,2.66,1.009c1.695,0,2.761-0.735,3.197-2.206h-2.296v-1.16h3.624c0,0.581-0.039,1.045-0.117,1.391
							c-0.078,0.346-0.239,0.728-0.484,1.145c-0.245,0.417-0.571,0.791-0.978,1.122c-0.407,0.33-0.843,0.567-1.308,0.709
							c-0.465,0.142-1.02,0.213-1.665,0.213c-1.468,0-2.64-0.461-3.514-1.382c-0.874-0.921-1.312-1.975-1.312-3.16
							c0-1.248,0.447-2.31,1.342-3.187c0.894-0.877,1.978-1.315,3.251-1.315c0.756,0,1.447,0.115,2.073,0.343
							C153.373,162.435,154.012,162.863,154.667,163.489z"/>
						<path style="fill:#FFFFFF;" d="M159.069,162.13h4.712v1.16h-3.564v2.119h3.564v1.146h-3.564v2.919h3.564v1.146h-4.712V162.13z
							"/>
						<path style="fill:#FFFFFF;" d="M167.914,162.13h1.842c0.917,0,1.663,0.228,2.239,0.683c0.576,0.455,0.864,1.038,0.864,1.749
							c0,0.569-0.187,1.071-0.559,1.506c-0.373,0.435-0.954,0.742-1.744,0.919l2.47,3.634h-1.332l-2.359-3.492h-0.26v3.492h-1.161
							V162.13z M169.075,163.156v2.959c1.713,0.036,2.57-0.46,2.57-1.486c0-0.36-0.1-0.654-0.3-0.883
							c-0.2-0.229-0.467-0.384-0.801-0.467S169.72,163.156,169.075,163.156z"/>
					</g>
				</g>
				<g>
					<g>
						<g>
							<path style="fill:#FFFFFF;" d="M183.86,166.325c0-1.225,0.463-2.275,1.388-3.15c0.926-0.875,2.038-1.312,3.337-1.312
								c1.268,0,2.361,0.441,3.277,1.322c0.917,0.881,1.375,1.928,1.375,3.14c0,1.283-0.453,2.368-1.358,3.253
								c-0.906,0.886-2.017,1.329-3.334,1.329c-1.299,0-2.405-0.446-3.317-1.338C184.316,168.676,183.86,167.595,183.86,166.325z
								 M192.003,166.378c0-0.937-0.338-1.726-1.015-2.367c-0.676-0.641-1.508-0.962-2.496-0.962c-0.939,0-1.743,0.326-2.413,0.979
								c-0.67,0.652-1.005,1.436-1.005,2.35c0,0.928,0.344,1.712,1.031,2.354s1.53,0.962,2.526,0.962
								c0.917,0,1.708-0.327,2.373-0.982C191.67,168.057,192.003,167.279,192.003,166.378z"/>
							<path style="fill:#FFFFFF;" d="M196.833,162.13h4.712v1.16h-3.564v2.119h3.564v1.146h-3.551v4.065h-1.161V162.13z"/>
						</g>
					</g>
					<g>
						<g>
							<g>
								<path style="fill:#FFFFFF;" d="M14.102,177.786h1.842c0.917,0,1.663,0.228,2.239,0.683c0.576,0.455,0.864,1.038,0.864,1.749
									c0,0.569-0.187,1.071-0.559,1.506c-0.373,0.435-0.954,0.742-1.744,0.919l2.47,3.634h-1.332l-2.359-3.492h-0.26v3.492h-1.161
									V177.786z M15.264,178.812v2.959c1.713,0.036,2.57-0.46,2.57-1.486c0-0.36-0.1-0.654-0.3-0.883
									c-0.2-0.229-0.467-0.384-0.801-0.467S15.909,178.812,15.264,178.812z"/>
								<path style="fill:#FFFFFF;" d="M23.357,177.786h4.712v1.16h-3.564v2.119h3.564v1.146h-3.564v2.919h3.564v1.146h-4.712
									V177.786z"/>
								<path style="fill:#FFFFFF;" d="M38.896,178.079v1.313c-0.917-0.449-1.76-0.673-2.53-0.673c-0.988,0-1.82,0.319-2.496,0.955
									c-0.676,0.637-1.015,1.419-1.015,2.347c0,0.945,0.346,1.734,1.038,2.367c0.692,0.632,1.559,0.949,2.6,0.949
									c0.756,0,1.557-0.238,2.403-0.713v1.326c-0.77,0.409-1.604,0.613-2.503,0.613c-1.317,0-2.443-0.445-3.377-1.335
									s-1.402-1.964-1.402-3.22c0-1.234,0.459-2.291,1.378-3.17c0.919-0.879,2.026-1.319,3.321-1.319
									C37.145,177.519,38.006,177.706,38.896,178.079z"/>
								<path style="fill:#FFFFFF;" d="M42.466,181.981c0-1.225,0.463-2.275,1.388-3.15c0.926-0.875,2.038-1.312,3.337-1.312
									c1.268,0,2.361,0.441,3.277,1.322c0.917,0.881,1.375,1.928,1.375,3.14c0,1.283-0.453,2.368-1.358,3.253
									c-0.906,0.886-2.017,1.329-3.334,1.329c-1.299,0-2.405-0.446-3.317-1.339C42.922,184.332,42.466,183.251,42.466,181.981z
									 M50.609,182.034c0-0.937-0.338-1.726-1.015-2.367c-0.676-0.641-1.508-0.962-2.496-0.962c-0.939,0-1.743,0.326-2.413,0.979
									c-0.67,0.652-1.005,1.436-1.005,2.35c0,0.928,0.344,1.712,1.031,2.354c0.688,0.641,1.53,0.962,2.526,0.962
									c0.917,0,1.708-0.327,2.373-0.982C50.277,183.713,50.609,182.935,50.609,182.034z"/>
								<path style="fill:#FFFFFF;" d="M56.028,177.786h1.842c0.917,0,1.663,0.228,2.239,0.683c0.576,0.455,0.864,1.038,0.864,1.749
									c0,0.569-0.187,1.071-0.559,1.506c-0.373,0.435-0.954,0.742-1.744,0.919l2.47,3.634h-1.332l-2.359-3.492h-0.26v3.492h-1.161
									V177.786z M57.189,178.812v2.959c1.713,0.036,2.57-0.46,2.57-1.486c0-0.36-0.1-0.654-0.3-0.883
									c-0.2-0.229-0.467-0.384-0.801-0.467C58.324,178.853,57.834,178.812,57.189,178.812z"/>
								<path style="fill:#FFFFFF;" d="M65.389,177.786h2.062c1.633,0,2.848,0.431,3.644,1.293c0.797,0.862,1.195,1.846,1.195,2.953
									c0,1.115-0.412,2.102-1.235,2.959c-0.823,0.858-2.02,1.286-3.591,1.286h-2.076V177.786z M66.55,178.919v6.212h0.067
									c0.863,0,1.513-0.039,1.949-0.117c0.436-0.078,0.85-0.248,1.242-0.51c0.391-0.262,0.703-0.61,0.934-1.043
									c0.231-0.433,0.347-0.91,0.347-1.43c0-0.653-0.185-1.244-0.554-1.773c-0.369-0.529-0.811-0.884-1.325-1.066
									c-0.514-0.182-1.205-0.273-2.073-0.273H66.55z"/>
							</g>
						</g>
						<g>
							<g>
								<g>
									<path style="fill:#FFFFFF;" d="M81.546,177.786h4.712v1.16h-3.564v2.119h3.564v1.146h-3.551v4.065h-1.161V177.786z"/>
									<path style="fill:#FFFFFF;" d="M89.856,181.981c0-1.225,0.463-2.275,1.388-3.15c0.926-0.875,2.038-1.312,3.337-1.312
										c1.268,0,2.361,0.441,3.277,1.322c0.917,0.881,1.375,1.928,1.375,3.14c0,1.283-0.453,2.368-1.358,3.253
										c-0.906,0.886-2.017,1.329-3.334,1.329c-1.299,0-2.405-0.446-3.317-1.339C90.313,184.332,89.856,183.251,89.856,181.981z
										 M98,182.034c0-0.937-0.338-1.726-1.015-2.367c-0.676-0.641-1.508-0.962-2.496-0.962c-0.939,0-1.743,0.326-2.413,0.979
										c-0.67,0.652-1.005,1.436-1.005,2.35c0,0.928,0.344,1.712,1.031,2.354c0.688,0.641,1.53,0.962,2.526,0.962
										c0.917,0,1.708-0.327,2.373-0.982C97.667,183.713,98,182.935,98,182.034z"/>
									<path style="fill:#FFFFFF;" d="M103.418,177.786h1.842c0.917,0,1.663,0.228,2.239,0.683
										c0.576,0.455,0.864,1.038,0.864,1.749c0,0.569-0.187,1.071-0.559,1.506c-0.373,0.435-0.954,0.742-1.744,0.919l2.47,3.634
										h-1.332l-2.359-3.492h-0.26v3.492h-1.161V177.786z M104.579,178.812v2.959c1.713,0.036,2.57-0.46,2.57-1.486
										c0-0.36-0.1-0.654-0.3-0.883c-0.2-0.229-0.467-0.384-0.801-0.467S105.224,178.812,104.579,178.812z"/>
									<path style="fill:#FFFFFF;" d="M118.221,177.786h1.842c0.917,0,1.663,0.228,2.239,0.683
										c0.576,0.455,0.864,1.038,0.864,1.749c0,0.569-0.187,1.071-0.559,1.506c-0.373,0.435-0.954,0.742-1.744,0.919l2.47,3.634
										h-1.332l-2.359-3.492h-0.26v3.492h-1.161V177.786z M119.382,178.812v2.959c1.713,0.036,2.57-0.46,2.57-1.486
										c0-0.36-0.1-0.654-0.3-0.883c-0.2-0.229-0.467-0.384-0.801-0.467S120.027,178.812,119.382,178.812z"/>
									<path style="fill:#FFFFFF;" d="M127.283,177.786h4.712v1.16h-3.564v2.119h3.564v1.146h-3.564v2.919h3.564v1.146h-4.712
										V177.786z"/>
									<path style="fill:#FFFFFF;" d="M141.059,178.732l-0.941,0.753c-0.249-0.258-0.474-0.45-0.676-0.577
										c-0.202-0.127-0.494-0.19-0.876-0.19c-0.417,0-0.756,0.094-1.016,0.282s-0.39,0.431-0.39,0.728
										c0,0.257,0.113,0.484,0.34,0.681c0.227,0.197,0.613,0.413,1.16,0.647c0.546,0.234,0.972,0.452,1.276,0.655
										c0.304,0.202,0.554,0.425,0.75,0.669c0.195,0.244,0.341,0.502,0.436,0.773c0.096,0.271,0.143,0.557,0.143,0.859
										c0,0.706-0.257,1.307-0.771,1.805c-0.514,0.497-1.136,0.746-1.866,0.746c-0.712,0-1.341-0.194-1.886-0.583
										c-0.545-0.389-0.965-0.972-1.258-1.749l1.161-0.327c0.423,0.955,1.07,1.433,1.942,1.433c0.423,0,0.774-0.126,1.055-0.379
										c0.28-0.252,0.42-0.571,0.42-0.957c0-0.23-0.074-0.462-0.221-0.694c-0.147-0.233-0.33-0.424-0.548-0.575
										c-0.218-0.151-0.566-0.323-1.042-0.518c-0.476-0.195-0.843-0.373-1.099-0.535c-0.257-0.162-0.479-0.355-0.666-0.58
										c-0.188-0.224-0.325-0.447-0.412-0.669c-0.087-0.222-0.131-0.46-0.131-0.713c0-0.608,0.245-1.127,0.734-1.555
										c0.489-0.428,1.083-0.643,1.782-0.643c0.463,0,0.932,0.1,1.408,0.3C140.347,178.019,140.743,178.323,141.059,178.732z"/>
									<path style="fill:#FFFFFF;" d="M145.109,177.786h4.712v1.16h-3.564v2.119h3.564v1.146h-3.564v2.919h3.564v1.146h-4.712
										V177.786z"/>
									<path style="fill:#FFFFFF;" d="M156.865,177.459l4.015,8.818h-1.217l-0.987-2.173h-3.608l-0.976,2.173h-1.208
										L156.865,177.459z M156.862,180.109l-1.36,3.029h2.735L156.862,180.109z"/>
									<path style="fill:#FFFFFF;" d="M164.629,177.786h1.842c0.917,0,1.663,0.228,2.239,0.683
										c0.576,0.455,0.864,1.038,0.864,1.749c0,0.569-0.187,1.071-0.559,1.506c-0.373,0.435-0.954,0.742-1.744,0.919l2.47,3.634
										h-1.332l-2.359-3.492h-0.26v3.492h-1.161V177.786z M165.791,178.812v2.959c1.713,0.036,2.57-0.46,2.57-1.486
										c0-0.36-0.1-0.654-0.3-0.883c-0.2-0.229-0.467-0.384-0.801-0.467C166.925,178.853,166.436,178.812,165.791,178.812z"/>
									<path style="fill:#FFFFFF;" d="M180.661,178.079v1.313c-0.917-0.449-1.76-0.673-2.53-0.673
										c-0.988,0-1.82,0.319-2.496,0.955c-0.676,0.637-1.015,1.419-1.015,2.347c0,0.945,0.346,1.734,1.038,2.367
										c0.692,0.632,1.559,0.949,2.6,0.949c0.756,0,1.557-0.238,2.403-0.713v1.326c-0.77,0.409-1.604,0.613-2.503,0.613
										c-1.317,0-2.443-0.445-3.377-1.335s-1.402-1.964-1.402-3.22c0-1.234,0.459-2.291,1.378-3.17
										c0.919-0.879,2.026-1.319,3.321-1.319C178.91,177.519,179.771,177.706,180.661,178.079z"/>
									<path style="fill:#FFFFFF;" d="M184.584,177.786h1.161v3.266h4.065v-3.266h1.148v8.491h-1.148v-4.079h-4.065v4.079h-1.161
										V177.786z"/>
								</g>
							</g>
						</g>
					</g>
				</g>
			</g>
		</g>
	</g>
</g>
</svg>
