<svg id="Logo" xmlns="http://www.w3.org/2000/svg" viewBox="0 0 45.129 42.659">
  <defs>
    <style>
      .cls-1 {
        fill: #fff;
      }
    </style>
  </defs>
  <g id="Group_9" data-name="Group 9">
    <path id="Path_10" data-name="Path 10" class="cls-1" d="M39.049,25.748a5.986,5.986,0,1,0,0-11.971,5.652,5.652,0,0,0-3.04.855l-3.135-1.805a2.631,2.631,0,0,0,.1-.855,3.59,3.59,0,0,0-3.515-3.61,2.092,2.092,0,0,0-.76.1l-.95-1.805a3.562,3.562,0,0,0,1.33-2.85,3.477,3.477,0,1,0-6.936-.19,3.59,3.59,0,0,0,3.515,3.61h.285l1.14,2a3.8,3.8,0,0,0-.95,1.71H21a3.517,3.517,0,0,0-7.031.19,3.59,3.59,0,0,0,3.515,3.61,3.4,3.4,0,0,0,3.04-1.805h5.7a3.568,3.568,0,0,0,3.325,2.47,3.45,3.45,0,0,0,2.47-1.045l2.47,1.425a5.968,5.968,0,0,0-1.33,3.8,6.126,6.126,0,0,0,.285,1.9H28.028a6.05,6.05,0,0,0-11.686-.95l-4.465-2.47a5.38,5.38,0,0,0,.285-1.71,5.982,5.982,0,0,0-6.081-5.986A6.143,6.143,0,0,0,0,16.532a5.982,5.982,0,0,0,6.081,5.986,5.854,5.854,0,0,0,4.845-2.47L15.962,22.8a5.491,5.491,0,0,0,.95,3.04L11.5,28.408a3.378,3.378,0,0,0-2.755-1.33,3.529,3.529,0,0,0-3.515,3.61A3.59,3.59,0,0,0,8.741,34.3a2.63,2.63,0,0,0,.855-.1l6.461,4.085a2.361,2.361,0,0,0-.1.76,3.61,3.61,0,1,0,7.221,0,3.678,3.678,0,0,0-1.9-3.23l-.1-7.316c.285,0,.475.1.76.1a6.193,6.193,0,0,0,5.986-5.036h6.651a6.2,6.2,0,0,0,2,1.52l-2,4.37a7.334,7.334,0,0,0-1.425-.19,5.995,5.995,0,1,0,3.325.95l2.09-4.655A.614.614,0,0,0,39.049,25.748ZM19.287,35.534a4.2,4.2,0,0,0-2.28,1.045L11.5,33.063a3.961,3.961,0,0,0,.855-2.28V30.4l6.081-2.85.855.57Z"/>
  </g>
</svg>
