<?xml version="1.0" encoding="utf-8"?>
<!-- Generator: Adobe Illustrator 22.1.0, SVG Export Plug-In . SVG Version: 6.00 Build 0)  -->
<svg version="1.1" id="Layer_1" xmlns="http://www.w3.org/2000/svg" xmlns:xlink="http://www.w3.org/1999/xlink" x="0px" y="0px"
	 width="103.053px" height="15.191px" viewBox="0 0 103.053 15.191" enable-background="new 0 0 103.053 15.191"
	 xml:space="preserve">
<g id="Logo" transform="translate(0 0)">
	<g id="Group_8" transform="translate(28.31 4.244)">
		<g id="Group_2">
			<g id="Group_1">
				<path id="Path_1" fill="#FFFFFF" d="M-21.669-4.244l6.74,14.729h-2.047l-1.648-3.645h-6.041l-1.645,3.645h-2L-21.669-4.244z
					 M-21.669,0.15l-2.3,5.043h4.593L-21.669,0.15z"/>
				<path id="Path_2" fill="#FFFFFF" d="M-12.083-3.695h3.1c1.343-0.057,2.665,0.348,3.745,1.148
					c0.926,0.694,1.464,1.789,1.448,2.946c0.022,0.925-0.319,1.822-0.949,2.5c-0.767,0.825-1.788,1.37-2.9,1.548l4.144,6.091h-2.247
					l-3.941-5.895h-0.449v5.842h-1.951V-3.695z M-10.136-1.995v4.943c2.846,0.05,4.294-0.749,4.294-2.5
					c0.027-0.545-0.151-1.08-0.5-1.5C-6.7-1.449-7.17-1.728-7.69-1.852C-8.5-1.968-9.318-2.016-10.136-1.995z"/>
				<path id="Path_3" fill="#FFFFFF" d="M-1.049-3.695h8.688v1.947h-3.4v12.233h-1.9V-1.748h-3.4v-1.947H-1.049z"/>
			</g>
		</g>
		<g id="Group_7" transform="translate(38.446)">
			<g id="Group_4" transform="translate(0 0.999)">
				<g id="Group_3">
					<path id="Path_4" fill="#FFFFFF" d="M-28.31-2.744c-0.02-0.848,0.651-1.552,1.499-1.572s1.552,0.651,1.572,1.499
						c0.02,0.848-0.651,1.552-1.499,1.572c-0.42,0.01-0.826-0.153-1.123-0.45C-28.166-1.956-28.332-2.344-28.31-2.744z
						 M-27.761,0.302h1.9v9.187h-1.9V0.302z"/>
				</g>
			</g>
			<g id="Group_6" transform="translate(6.241)">
				<g id="Group_5">
					<path id="Path_5" fill="#FFFFFF" d="M-28.31-3.695h7.889v1.947h-5.942v3.545h5.942v1.9h-5.942v6.79h-1.947V-3.695z"/>
					<path id="Path_6" fill="#FFFFFF" d="M-12.683-4.244l6.691,14.729h-2.047L-9.687,6.84h-6.041l-1.645,3.645h-2L-12.683-4.244z
						 M-12.683,0.15l-2.3,5.043h4.594L-12.683,0.15z"/>
					<path id="Path_7" fill="#FFFFFF" d="M7.14-3.245v2.2C5.83-1.742,4.379-2.134,2.896-2.193c-1.552-0.028-3.055,0.546-4.194,1.6
						c-1.115,1.004-1.736,2.444-1.7,3.944C-3.025,4.859-2.386,6.302-1.25,7.295c1.188,1.073,2.744,1.646,4.344,1.6
						c1.413-0.046,2.79-0.459,3.994-1.2v2.2c-1.288,0.697-2.73,1.057-4.194,1.049c-2.106,0.039-4.14-0.77-5.642-2.247
						c-1.508-1.386-2.36-3.344-2.347-5.392C-5.126,1.29-4.287-0.641-2.793-1.994c1.486-1.433,3.477-2.224,5.542-2.2
						C4.258-4.148,5.746-3.826,7.14-3.245z"/>
					<path id="Path_8" fill="#FFFFFF" d="M9.387-3.695h8.688v1.947h-3.4v12.233h-1.9V-1.748h-3.4v-1.947H9.387z"/>
					<path id="Path_9" fill="#FFFFFF" d="M29.708-2.147l-1.6,1.248c-0.328-0.377-0.716-0.697-1.148-0.949
						c-1.014-0.447-2.179-0.391-3.146,0.15c-0.417,0.254-0.665,0.712-0.649,1.2c0.013,0.443,0.212,0.86,0.549,1.148
						c0.595,0.455,1.25,0.825,1.947,1.1c0.746,0.304,1.464,0.672,2.147,1.1c0.47,0.301,0.891,0.672,1.248,1.1
						c0.315,0.392,0.568,0.831,0.749,1.3c0.16,0.466,0.244,0.955,0.25,1.448c0.018,1.14-0.455,2.234-1.3,3
						c-0.817,0.825-1.939,1.277-3.1,1.248c-1.129,0.014-2.232-0.337-3.146-1c-0.972-0.756-1.702-1.78-2.1-2.946l1.947-0.549
						c0.452,1.415,1.759,2.382,3.245,2.4c0.647,0.031,1.278-0.203,1.748-0.649c0.457-0.404,0.713-0.99,0.7-1.6
						c0-0.409-0.122-0.809-0.35-1.148c-0.233-0.374-0.539-0.696-0.9-0.949c-0.546-0.352-1.133-0.637-1.747-0.849
						c-0.8-0.35-1.4-0.649-1.847-0.9c-0.421-0.248-0.793-0.569-1.1-0.949c-0.275-0.339-0.51-0.708-0.7-1.1
						c-0.147-0.382-0.215-0.791-0.2-1.2c-0.011-1.014,0.45-1.975,1.248-2.6c0.828-0.728,1.898-1.12,3-1.1
						c0.809,0.002,1.608,0.173,2.347,0.5C28.542-3.324,29.193-2.796,29.708-2.147z"/>
				</g>
			</g>
		</g>
	</g>
</g>
</svg>
