<svg xmlns="http://www.w3.org/2000/svg" viewBox="0 0 9.587 9.587">
  <defs>
    <style>
      .cls-1 {
        fill: #fff;
      }
    </style>
  </defs>
  <path id="Settings" class="cls-1" d="M9.1,3.787l-.673-.114a3.8,3.8,0,0,0-.27-.653l.4-.555A.59.59,0,0,0,8.486,1.7l-.6-.6A.588.588,0,0,0,7.47.931a.582.582,0,0,0-.342.11l-.557.4a3.76,3.76,0,0,0-.677-.278L5.782.495A.592.592,0,0,0,5.2,0H4.354a.592.592,0,0,0-.585.495l-.116.681A3.706,3.706,0,0,0,3,1.45l-.551-.4a.592.592,0,0,0-.763.064l-.6.6a.593.593,0,0,0-.064.763l.4.563A3.711,3.711,0,0,0,1.16,3.7l-.665.112A.592.592,0,0,0,0,4.392v.843a.592.592,0,0,0,.495.585l.681.116a3.706,3.706,0,0,0,.274.651l-.395.549A.59.59,0,0,0,1.12,7.9l.6.6a.588.588,0,0,0,.419.174.582.582,0,0,0,.342-.11l.563-.4a3.789,3.789,0,0,0,.633.26l.112.673a.592.592,0,0,0,.585.495h.845A.592.592,0,0,0,5.8,9.093l.114-.673a3.8,3.8,0,0,0,.653-.27l.555.4a.592.592,0,0,0,.763-.064l.6-.6a.593.593,0,0,0,.064-.763l-.4-.557a3.773,3.773,0,0,0,.27-.653L9.093,5.8a.592.592,0,0,0,.495-.585V4.372A.585.585,0,0,0,9.1,3.787Zm-4.3,2.534A1.528,1.528,0,1,1,6.323,4.793,1.529,1.529,0,0,1,4.795,6.321Z" transform="translate(0 0)"/>
</svg>
