<?xml version="1.0" encoding="utf-8"?>
<!-- Generator: Adobe Illustrator 22.1.0, SVG Export Plug-In . SVG Version: 6.00 Build 0)  -->
<svg version="1.1" id="Layer_1" xmlns="http://www.w3.org/2000/svg" xmlns:xlink="http://www.w3.org/1999/xlink" x="0px" y="0px"
	 width="25px" height="25px" viewBox="0 0 25 25" style="enable-background:new 0 0 25 25;" xml:space="preserve">
<linearGradient id="share_1_" gradientUnits="userSpaceOnUse" x1="-281.2808" y1="393.1635" x2="-280.2808" y2="393.1635" gradientTransform="matrix(25.0018 0 0 -24.9732 7032.5186 9831.0605)">
	<stop  offset="0" style="stop-color:#00F2FE"/>
	<stop  offset="0.021" style="stop-color:#03EFFE"/>
	<stop  offset="0.293" style="stop-color:#24D2FE"/>
	<stop  offset="0.554" style="stop-color:#3CBDFE"/>
	<stop  offset="0.796" style="stop-color:#4AB0FE"/>
	<stop  offset="1" style="stop-color:#4FACFE"/>
</linearGradient>
<path id="share" style="fill:url(#share_1_);" d="M20.8,16.6c-1.25,0-2.434,0.557-3.231,1.52L14.3,16.5
	c-0.477-0.252-1.068-0.069-1.32,0.408c-0.252,0.477-0.069,1.068,0.408,1.32c0.014,0.007,0.028,0.014,0.042,0.021l3.27,1.624
	c-0.512,2.262,0.907,4.511,3.169,5.023s4.511-0.907,5.023-3.169s-0.907-4.511-3.169-5.023C21.42,16.635,21.111,16.6,20.8,16.6z
	 M20.8,23.045c-1.24,0-2.246-1.005-2.246-2.246c0-0.298,0.059-0.592,0.174-0.867c0.05-0.074,0.09-0.155,0.118-0.24
	c0.612-1.079,1.983-1.457,3.062-0.844c1.079,0.612,1.457,1.983,0.844,3.062c-0.399,0.703-1.144,1.137-1.952,1.137V23.045z
	 M9.867,14.272l-1.581-0.8c0.148-0.632,0.148-1.289,0-1.921l9.289-4.658c1.484,1.768,4.119,1.999,5.888,0.515
	s1.999-4.119,0.515-5.888c-1.484-1.768-4.119-1.999-5.888-0.515c-1.203,1.01-1.739,2.609-1.386,4.14L7.414,9.8
	c-1.49-1.777-4.139-2.01-5.917-0.52s-2.01,4.139-0.52,5.917s4.139,2.01,5.917,0.52c0.184-0.154,0.355-0.324,0.51-0.508l1.577,0.8
	c0.475,0.256,1.068,0.078,1.323-0.397s0.078-1.068-0.397-1.323c-0.013-0.007-0.027-0.014-0.04-0.02V14.272z M20.8,1.953
	c1.24-0.001,2.246,1.005,2.247,2.245c0.001,1.24-1.005,2.246-2.245,2.247c-1.24,0.001-2.246-1.005-2.247-2.245c0,0,0,0,0,0
	C18.556,2.96,19.56,1.955,20.8,1.953z M4.2,14.746c-1.24,0.001-2.246-1.005-2.247-2.245s1.005-2.246,2.245-2.247
	s2.246,1.005,2.247,2.245c0,0,0,0.001,0,0.001C6.443,13.739,5.439,14.744,4.2,14.746z"/>
</svg>
