<svg xmlns="http://www.w3.org/2000/svg" viewBox="0 0 131.364 22.418">
  <defs>
    <style>
      .cls-1 {
        fill: #fff;
      }
    </style>
  </defs>
  <g id="Logo" transform="translate(0 0)">
    <g id="Group_8" data-name="Group 8" transform="translate(28.31 4.244)">
      <g id="Group_2" data-name="Group 2">
        <g id="Group_1" data-name="Group 1">
          <path id="Path_1" data-name="Path 1" class="cls-1" d="M63.341,8.5l6.74,14.729H68.034l-1.648-3.645H60.345L58.7,23.229h-2Zm0,4.394-2.3,5.043h4.593Z" transform="translate(-56.7 -8.5)"/>
          <path id="Path_2" data-name="Path 2" class="cls-1" d="M89.2,9.6h3.1a5.877,5.877,0,0,1,3.745,1.148,3.619,3.619,0,0,1,1.448,2.946,3.549,3.549,0,0,1-.949,2.5,5.048,5.048,0,0,1-2.9,1.548l4.144,6.091H95.541L91.6,17.938h-.449V23.78H89.2Zm1.947,1.7v4.943c2.846.05,4.294-.749,4.294-2.5a2.176,2.176,0,0,0-.5-1.5,2.644,2.644,0,0,0-1.348-.8A14.644,14.644,0,0,0,91.147,11.3Z" transform="translate(-72.973 -9.051)"/>
          <path id="Path_3" data-name="Path 3" class="cls-1" d="M111.3,9.6h8.688v1.947h-3.4V23.78h-1.9V11.547h-3.4V9.6Z" transform="translate(-84.039 -9.051)"/>
        </g>
      </g>
      <g id="Group_7" data-name="Group 7" transform="translate(38.446)">
        <g id="Group_4" data-name="Group 4" transform="translate(0 0.999)">
          <g id="Group_3" data-name="Group 3">
            <path id="Path_4" data-name="Path 4" class="cls-1" d="M133.7,12a1.536,1.536,0,1,1,.449,1.049A1.29,1.29,0,0,1,133.7,12Zm.549,3.046h1.9v9.187h-1.9Z" transform="translate(-133.7 -10.5)"/>
          </g>
        </g>
        <g id="Group_6" data-name="Group 6" transform="translate(6.241)">
          <g id="Group_5" data-name="Group 5">
            <path id="Path_5" data-name="Path 5" class="cls-1" d="M146.2,9.6h7.889v1.947h-5.942v3.545h5.942v1.9h-5.942v6.79H146.2V9.6Z" transform="translate(-146.2 -9.051)"/>
            <path id="Path_6" data-name="Path 6" class="cls-1" d="M170.79,8.5l6.691,14.729h-2.047l-1.648-3.645h-6.041L166.1,23.229h-2Zm0,4.394-2.3,5.043h4.594Z" transform="translate(-155.163 -8.5)"/>
            <path id="Path_7" data-name="Path 7" class="cls-1" d="M204.933,9.549v2.2a9.867,9.867,0,0,0-4.244-1.148,6.016,6.016,0,0,0-4.194,1.6,5.143,5.143,0,0,0-1.7,3.944,5.114,5.114,0,0,0,1.748,3.944,6.213,6.213,0,0,0,4.344,1.6,8.128,8.128,0,0,0,3.994-1.2v2.2a8.71,8.71,0,0,1-4.194,1.049,7.84,7.84,0,0,1-5.642-2.247,7.262,7.262,0,0,1-2.347-5.392A7,7,0,0,1,195,10.8a7.855,7.855,0,0,1,5.542-2.2A12.405,12.405,0,0,1,204.933,9.549Z" transform="translate(-169.483 -8.55)"/>
            <path id="Path_8" data-name="Path 8" class="cls-1" d="M221.7,9.6h8.688v1.947h-3.4V23.78h-1.9V11.547h-3.4V9.6Z" transform="translate(-184.003 -9.051)"/>
            <path id="Path_9" data-name="Path 9" class="cls-1" d="M253.087,10.647l-1.6,1.248a4.588,4.588,0,0,0-1.148-.949,3.527,3.527,0,0,0-3.146.15,1.354,1.354,0,0,0-.649,1.2,1.573,1.573,0,0,0,.549,1.148,8.1,8.1,0,0,0,1.947,1.1,13.932,13.932,0,0,1,2.147,1.1,5.457,5.457,0,0,1,1.248,1.1,4.868,4.868,0,0,1,.749,1.3,4.64,4.64,0,0,1,.25,1.448,3.965,3.965,0,0,1-1.3,3,4.218,4.218,0,0,1-3.1,1.248,5.249,5.249,0,0,1-3.146-1,6.319,6.319,0,0,1-2.1-2.946l1.947-.549a3.45,3.45,0,0,0,3.245,2.4,2.373,2.373,0,0,0,1.748-.649,2.076,2.076,0,0,0,.7-1.6,2.052,2.052,0,0,0-.35-1.148,3.274,3.274,0,0,0-.9-.949,8.114,8.114,0,0,0-1.747-.849c-.8-.35-1.4-.649-1.847-.9a4.077,4.077,0,0,1-1.1-.949,5.666,5.666,0,0,1-.7-1.1,3.022,3.022,0,0,1-.2-1.2,3.258,3.258,0,0,1,1.248-2.6,4.42,4.42,0,0,1,3-1.1,5.843,5.843,0,0,1,2.347.5A5.644,5.644,0,0,1,253.087,10.647Z" transform="translate(-195.069 -8.55)"/>
          </g>
        </g>
      </g>
    </g>
    <g id="Group_9" data-name="Group 9" transform="translate(0 0)">
      <path id="Path_10" data-name="Path 10" class="cls-1" d="M20.521,13.531a3.146,3.146,0,1,0,0-6.291,2.97,2.97,0,0,0-1.6.449L17.276,6.74a1.382,1.382,0,0,0,.05-.449,1.887,1.887,0,0,0-1.847-1.9,1.1,1.1,0,0,0-.4.05l-.5-.949a1.872,1.872,0,0,0,.7-1.5,1.827,1.827,0,1,0-3.645-.1,1.887,1.887,0,0,0,1.847,1.9h.15l.6,1.049a2,2,0,0,0-.5.9h-2.7a1.848,1.848,0,0,0-3.695.1,1.887,1.887,0,0,0,1.847,1.9,1.789,1.789,0,0,0,1.6-.949h3a1.875,1.875,0,0,0,1.748,1.3,1.813,1.813,0,0,0,1.3-.549l1.3.749a3.136,3.136,0,0,0-.7,2,3.219,3.219,0,0,0,.15,1H14.729a3.179,3.179,0,0,0-6.141-.5l-2.347-1.3a2.827,2.827,0,0,0,.15-.9A3.144,3.144,0,0,0,3.2,5.442,3.228,3.228,0,0,0,0,8.688a3.144,3.144,0,0,0,3.2,3.146,3.076,3.076,0,0,0,2.546-1.3l2.646,1.448a2.886,2.886,0,0,0,.5,1.6L6.041,14.929a1.775,1.775,0,0,0-1.448-.7,1.855,1.855,0,0,0-1.847,1.9,1.887,1.887,0,0,0,1.847,1.9,1.382,1.382,0,0,0,.449-.05l3.4,2.147a1.241,1.241,0,0,0-.05.4,1.9,1.9,0,1,0,3.795,0,1.933,1.933,0,0,0-1-1.7l-.05-3.845c.15,0,.25.05.4.05a3.254,3.254,0,0,0,3.146-2.646h3.5a3.257,3.257,0,0,0,1.049.8l-1.049,2.3a3.854,3.854,0,0,0-.749-.1,3.15,3.15,0,1,0,1.748.5l1.1-2.447A.323.323,0,0,0,20.521,13.531ZM10.136,18.674a2.207,2.207,0,0,0-1.2.549l-2.9-1.847a2.081,2.081,0,0,0,.449-1.2v-.2l3.2-1.5.449.3Z" transform="translate(0 0)"/>
    </g>
  </g>
</svg>
